<svg xmlns="http://www.w3.org/2000/svg" class="svg-icon" style="vertical-align: middle;overflow: hidden;" viewBox="0 0 1024 1024" version="1.1"><path d="M480.2048 97.28a86.3744 86.3744 0 0 1 0 172.8l5.0688-0.256v170.1888c17.3056 1.024 33.1776 7.0656 46.2336 16.7424l128.512-128.3584a86.4256 86.4256 0 1 1 12.1856 16.6912l-125.7472 125.7472c12.544 15.0016 20.1216 34.304 20.1216 55.4496l-0.2048-4.5056h170.1376a86.4256 86.4256 0 0 1 78.848-81.6128l7.424-0.3072a86.4256 86.4256 0 1 1-84.8896 102.4h-172.8a86.016 86.016 0 0 1-17.408 37.888l133.888 133.8368a86.4256 86.4256 0 1 1-14.3872 14.5408l-134.0416-133.9904a86.016 86.016 0 0 1-52.9408 18.1248l5.0688-0.2048v170.1888c42.9056 2.4576 77.3632 36.2496 80.9984 78.7968l0.3072 7.424a86.3744 86.3744 0 1 1-101.7856-84.992v-172.544a86.016 86.016 0 0 1-39.9872-18.7392l-125.8496 125.696 2.304 2.1504c31.744 31.744 33.6384 82.0736 5.632 116.0192l-5.632 6.144a86.4256 86.4256 0 1 1-18.944-136.5504l128.4096-128.4096a86.016 86.016 0 0 1-15.4624-35.328H222.5152a86.4256 86.4256 0 1 1 1.4848-16.0256l-0.2048-4.5056h170.1376a86.016 86.016 0 0 1 17.9712-48.4864l-118.784-118.784a86.4256 86.4256 0 1 1 14.592-14.336L426.2912 458.752a86.016 86.016 0 0 1 38.5024-17.5104v-172.544a86.4256 86.4256 0 0 1 15.36-171.4176z"/></svg>
