<svg xmlns="http://www.w3.org/2000/svg" class="svg-icon" style="vertical-align: middle;overflow: hidden;" viewBox="0 0 1024 1024" version="1.1"><path d="M267.392 100.48a32 32 0 0 1 32.64 55.04 415.744 415.744 0 0 0-200.448 414.848 32 32 0 1 1-63.424 8.576A479.68 479.68 0 0 1 267.392 100.48z m-5.888 852.8a32 32 0 1 1 33.408-54.592A413.888 413.888 0 0 0 512 959.744c79.36 0 155.264-22.208 220.992-63.488a32 32 0 0 1 34.048 54.208A477.824 477.824 0 0 1 512 1023.744c-89.6 0-175.744-24.64-250.496-70.464z m730.496-371.2a32 32 0 1 1-63.488-8.32 415.808 415.808 0 0 0-209.152-417.92 32 32 0 0 1 31.36-55.744 479.808 479.808 0 0 1 241.28 482.048zM480.32 252.096a128 128 0 1 1 64-0.128v134.784a192 192 0 0 1 153.088 239.296l101.504 58.56a128 128 0 1 1-28.288 57.6l-100.096-57.792A191.808 191.808 0 0 1 512 768a191.808 191.808 0 0 1-158.4-83.392L253.44 742.4a128 128 0 1 1-28.16-57.6l101.376-58.56a192.256 192.256 0 0 1 153.6-239.616V252.032zM512 192a64 64 0 1 0 0-128 64 64 0 0 0 0 128z m0 512a128 128 0 1 0 0-256 128 128 0 0 0 0 256z m-384 128a64 64 0 1 0 0-128 64 64 0 0 0 0 128z m768 0a64 64 0 1 0 0-128 64 64 0 0 0 0 128z"/></svg>
